<?xml version="1.0" encoding="utf-8"?>
<!-- Generator: Adobe Illustrator 21.0.0, SVG Export Plug-In . SVG Version: 6.00 Build 0)  -->
<svg version="1.1" id="Layer_1" xmlns="http://www.w3.org/2000/svg" xmlns:xlink="http://www.w3.org/1999/xlink" x="0px" y="0px"
	 viewBox="0 0 64 64" style="enable-background:new 0 0 64 64;" xml:space="preserve">
<style type="text/css">
	.st0{fill:#455A64;stroke:#37474F;stroke-linecap:round;stroke-linejoin:round;stroke-miterlimit:10;}
	.st1{fill:#78909C;stroke:#37474F;stroke-linecap:round;stroke-linejoin:round;stroke-miterlimit:10;}
	.st2{fill:#ECEFF1;stroke:#37474F;stroke-linecap:round;stroke-linejoin:round;stroke-miterlimit:10;}
	.st3{fill:none;stroke:#FFFFFF;stroke-linecap:round;stroke-linejoin:round;stroke-miterlimit:10;}
	.st4{fill:#FFCA28;stroke:#37474F;stroke-linecap:round;stroke-linejoin:round;stroke-miterlimit:10;}
	.st5{fill:none;stroke:#37474F;stroke-linecap:round;stroke-linejoin:round;stroke-miterlimit:10;}
	.st6{fill:#B0BEC5;}
	.st7{fill:#37474F;}
	.st8{fill:#455A64;}
	.st9{fill:#9CCC65;stroke:#37474F;stroke-linecap:round;stroke-linejoin:round;stroke-miterlimit:10;}
	.st10{fill:none;stroke:#C5E1A5;stroke-linecap:round;stroke-linejoin:round;stroke-miterlimit:10;}
	.st11{fill:#26C6DA;stroke:#37474F;stroke-linecap:round;stroke-linejoin:round;stroke-miterlimit:10;}
	.st12{fill:#EF5350;stroke:#37474F;stroke-linecap:round;stroke-linejoin:round;stroke-miterlimit:10;}
	.st13{fill:#B0BEC5;stroke:#37474F;stroke-linecap:round;stroke-linejoin:round;stroke-miterlimit:10;}
	.st14{fill:none;stroke:#EF9A9A;stroke-linecap:round;stroke-linejoin:round;stroke-miterlimit:10;}
	.st15{fill:none;stroke:#FFE082;stroke-linecap:round;stroke-linejoin:round;stroke-miterlimit:10;}
	.st16{fill:#D32F2F;stroke:#37474F;stroke-linecap:round;stroke-linejoin:round;stroke-miterlimit:10;}
	.st17{fill:#0097A7;stroke:#37474F;stroke-linecap:round;stroke-linejoin:round;stroke-miterlimit:10;}
	.st18{fill:#689F38;stroke:#37474F;stroke-linecap:round;stroke-linejoin:round;stroke-miterlimit:10;}
	.st19{fill:#FFA000;stroke:#37474F;stroke-linecap:round;stroke-linejoin:round;stroke-miterlimit:10;}
	.st20{fill:#FFA000;}
	.st21{fill:#FF6F00;}
	.st22{fill:#D32F2F;}
	.st23{fill:#0097A7;}
	.st24{fill:none;stroke:#80DEEA;stroke-linecap:round;stroke-linejoin:round;stroke-miterlimit:10;}
	.st25{fill:#689F38;}
	.st26{fill:none;stroke:#B0BEC5;stroke-linecap:round;stroke-linejoin:round;stroke-miterlimit:10;}
	.st27{fill:#78909C;stroke:#37474F;stroke-miterlimit:10;}
	.st28{fill:#78909C;}
	.st29{fill:#B71C1C;}
	.st30{fill:#F57F17;}
	.st31{fill:#006064;}
	.st32{fill:#26A69A;stroke:#37474F;stroke-linecap:round;stroke-linejoin:round;stroke-miterlimit:10;}
</style>
<g>
	<path class="st16" d="M27,36.5H11c-5.5,0-10,4.5-10,10V58c0,1.4,1.1,2.5,2.5,2.5h31c1.4,0,2.5-1.1,2.5-2.5V46.5
		C37,41,32.5,36.5,27,36.5z"/>
	<path class="st12" d="M27,32.5H11c-5.5,0-10,4.5-10,10V54c0,1.4,1.1,2.5,2.5,2.5h31c1.4,0,2.5-1.1,2.5-2.5V42.5
		C37,37,32.5,32.5,27,32.5z"/>
	<path class="st14" d="M3,42.5c0-4.4,3.6-8,8-8"/>
	<line class="st2" x1="9" y1="56.5" x2="9" y2="45.5"/>
	<line class="st2" x1="29" y1="56.5" x2="29" y2="45.5"/>
	<circle class="st2" cx="19" cy="20.5" r="12"/>
	<path class="st5" d="M14.4,25.1c2.5,2.5,6.7,2.5,9.2,0"/>
	<path class="st1" d="M28.8,13.6L7.3,17.8c1.2-5.3,6-9.3,11.7-9.3C23.1,8.5,26.6,10.5,28.8,13.6z"/>
	<path class="st1" d="M26.8,11.4L26.8,11.4c2.5,2.2,4.2,5.4,4.2,9.1h0c-2.3,0-4.2-1.9-4.2-4.2V11.4z"/>
	<polygon class="st4" points="25.1,42.5 19.1,38.5 13.1,42.5 13.1,32.5 25.1,32.5 	"/>
	<polygon class="st2" points="19.1,38.5 13.1,32.5 25.1,32.5 	"/>
	<path class="st17" d="M31,12.5v13c0,2.8,2.2,5,5,5h3c0.6,0,1,0.4,1,1v4.6c0,0.9,1.1,1.3,1.7,0.7l4.8-4.8c0.9-0.9,2.2-1.5,3.5-1.5
		H58c2.8,0,5-2.2,5-5v-13c0-2.8-2.2-5-5-5H36C33.2,7.5,31,9.7,31,12.5z"/>
	<path class="st11" d="M31,8.5v13c0,2.8,2.2,5,5,5h3c0.6,0,1,0.4,1,1v4.6c0,0.9,1.1,1.3,1.7,0.7l4.8-4.8c0.9-0.9,2.2-1.5,3.5-1.5H58
		c2.8,0,5-2.2,5-5v-13c0-2.8-2.2-5-5-5H36C33.2,3.5,31,5.7,31,8.5z"/>
	<path class="st24" d="M33,12.5v-4c0-1.7,1.3-3,3-3h4"/>
	<line class="st5" x1="37" y1="10.5" x2="57" y2="10.5"/>
	<line class="st5" x1="37" y1="15" x2="57" y2="15"/>
	<line class="st5" x1="37" y1="19.5" x2="47" y2="19.5"/>
</g>
</svg>
