<svg xmlns="http://www.w3.org/2000/svg" viewBox="0 0 48 48"><defs><style>.cls-1{fill:#42a5f5;}.cls-2{fill:#424242;}</style></defs><title>Investment</title><g id="Investment"><rect class="cls-1" y="27" width="6" height="17"/><path class="cls-1" d="M29,0a8,8,0,1,0,8,8A8,8,0,0,0,29,0Zm0,7a3,3,0,0,1,1,5.82,1,1,0,1,1-2,0C25.79,12,25.34,9,27,9a1,1,0,0,1,1,1,1,1,0,1,0,1-1,3,3,0,0,1-1-5.82,1,1,0,1,1,2,0C32.21,4,32.66,7,31,7a1,1,0,0,1-1-1,1,1,0,1,0-1,1Z"/><path class="cls-2" d="M47.56,33.18a4,4,0,0,0-5.39-1.74l-2,1A14.13,14.13,0,0,0,30,27.06V18a9.55,9.55,0,0,1-2,0V27a14.16,14.16,0,0,0-7.25,2.6C14.54,26.71,14.76,27,8,27.87v2c8.18-1,5.38-1.48,19.85,5.3a2,2,0,0,1-1.7,3.63L18.26,35.1a1,1,0,0,0-.86,1.8l7.89,3.71a3.92,3.92,0,0,0,3.93-.3l13.86-7.09a2,2,0,1,1,1.84,3.56C27.42,45.72,27.59,46,24.72,46a9.21,9.21,0,0,1-4.26-.8C10.33,40.6,12,41,8,41v2c1.7,0,2.58-.1,3.77.45,8.55,3.88,9.4,4.55,12.4,4.55,4.24,0,3.73-.28,21.66-9.44A4,4,0,0,0,47.56,33.18ZM31,37.15a4,4,0,0,0-2.29-3.77l-5.82-2.74a12.19,12.19,0,0,1,15.47,2.75Z"/><path class="cls-1" d="M33,20h2a0,0,0,0,1,0,0v1a4,4,0,0,1-4,4H29a0,0,0,0,1,0,0V24A4,4,0,0,1,33,20Z"/><path class="cls-1" d="M23,20h2a4,4,0,0,1,4,4v1a0,0,0,0,1,0,0H27a4,4,0,0,1-4-4V20A0,0,0,0,1,23,20Z" transform="translate(52 45) rotate(-180)"/></g></svg>